<svg id="Layer_1" xmlns="http://www.w3.org/2000/svg" xmlns:xlink="http://www.w3.org/1999/xlink" width="22" height="22" viewBox="0 0 22 22">
  <defs>
    <clipPath id="clip-path">
      <rect id="Rectangle_365" data-name="Rectangle 365" width="22" height="22" transform="translate(267 1080)" stroke="#708298" stroke-width="1"/>
    </clipPath>
  </defs>
  <g id="Mask_Group_82" data-name="Mask Group 82" transform="translate(-267 -1080)" opacity="1" clip-path="url(#clip-path)">
    <g id="location" transform="translate(267 1080)">
      <path id="Path_377" data-name="Path 377" d="M17.513,3.767A7.466,7.466,0,0,0,11.169,0c-.113,0-.226,0-.339,0A7.466,7.466,0,0,0,4.487,3.767a7.659,7.659,0,0,0-.1,7.568l5.455,9.985.007.013a1.326,1.326,0,0,0,2.3,0l.007-.013,5.455-9.985a7.659,7.659,0,0,0-.1-7.568ZM11,9.969a3.094,3.094,0,1,1,3.094-3.094A3.1,3.1,0,0,1,11,9.969Z"/>
    </g>
  </g>
</svg>
